<?xml version="1.0" encoding="UTF-8"?><svg xmlns="http://www.w3.org/2000/svg" xmlns:xlink="http://www.w3.org/1999/xlink" fill-opacity="1" color-rendering="auto" color-interpolation="auto" stroke="black" text-rendering="auto" stroke-linecap="square" width="937" stroke-miterlimit="10" stroke-opacity="1" shape-rendering="auto" fill="black" stroke-dasharray="none" font-weight="normal" stroke-width="1" height="627" font-family="'Dialog'" font-style="normal" stroke-linejoin="miter" font-size="12" stroke-dashoffset="0" image-rendering="auto">
  <!--Generated by ySVG 2.5-->
  <defs id="genericDefs"/>
  <g>
    <defs id="defs1">
      <linearGradient x1="326" gradientUnits="userSpaceOnUse" x2="331.0062" y1="619.5" y2="647.752" id="linearGradient1" spreadMethod="pad">
        <stop stop-opacity="0.8627" stop-color="rgb(255,255,255)" offset="0%"/>
        <stop stop-opacity="0.1255" stop-color="rgb(255,255,255)" offset="100%"/>
      </linearGradient>
      <linearGradient x1="326" gradientUnits="userSpaceOnUse" x2="331.0062" y1="657.5" y2="685.752" id="linearGradient2" spreadMethod="pad">
        <stop stop-opacity="0.8627" stop-color="rgb(255,255,255)" offset="0%"/>
        <stop stop-opacity="0.1255" stop-color="rgb(255,255,255)" offset="100%"/>
      </linearGradient>
      <linearGradient x1="326" gradientUnits="userSpaceOnUse" x2="331.0062" y1="695.5" y2="723.752" id="linearGradient3" spreadMethod="pad">
        <stop stop-opacity="0.8627" stop-color="rgb(255,255,255)" offset="0%"/>
        <stop stop-opacity="0.1255" stop-color="rgb(255,255,255)" offset="100%"/>
      </linearGradient>
      <linearGradient x1="499" gradientUnits="userSpaceOnUse" x2="504.0062" y1="619.5" y2="647.752" id="linearGradient4" spreadMethod="pad">
        <stop stop-opacity="0.8627" stop-color="rgb(255,255,255)" offset="0%"/>
        <stop stop-opacity="0.1255" stop-color="rgb(255,255,255)" offset="100%"/>
      </linearGradient>
      <linearGradient x1="499" gradientUnits="userSpaceOnUse" x2="504.0062" y1="657.5" y2="685.752" id="linearGradient5" spreadMethod="pad">
        <stop stop-opacity="0.8627" stop-color="rgb(255,255,255)" offset="0%"/>
        <stop stop-opacity="0.1255" stop-color="rgb(255,255,255)" offset="100%"/>
      </linearGradient>
      <linearGradient x1="499" gradientUnits="userSpaceOnUse" x2="504.0062" y1="695.5" y2="723.752" id="linearGradient6" spreadMethod="pad">
        <stop stop-opacity="0.8627" stop-color="rgb(255,255,255)" offset="0%"/>
        <stop stop-opacity="0.1255" stop-color="rgb(255,255,255)" offset="100%"/>
      </linearGradient>
      <linearGradient x1="672" gradientUnits="userSpaceOnUse" x2="677.0062" y1="619.5" y2="647.752" id="linearGradient7" spreadMethod="pad">
        <stop stop-opacity="0.8627" stop-color="rgb(255,255,255)" offset="0%"/>
        <stop stop-opacity="0.1255" stop-color="rgb(255,255,255)" offset="100%"/>
      </linearGradient>
      <linearGradient x1="672" gradientUnits="userSpaceOnUse" x2="677.0062" y1="657.5" y2="685.752" id="linearGradient8" spreadMethod="pad">
        <stop stop-opacity="0.8627" stop-color="rgb(255,255,255)" offset="0%"/>
        <stop stop-opacity="0.1255" stop-color="rgb(255,255,255)" offset="100%"/>
      </linearGradient>
      <linearGradient x1="672" gradientUnits="userSpaceOnUse" x2="677.0062" y1="695.5" y2="723.752" id="linearGradient9" spreadMethod="pad">
        <stop stop-opacity="0.8627" stop-color="rgb(255,255,255)" offset="0%"/>
        <stop stop-opacity="0.1255" stop-color="rgb(255,255,255)" offset="100%"/>
      </linearGradient>
      <linearGradient x1="326" gradientUnits="userSpaceOnUse" x2="331.0062" y1="464" y2="492.252" id="linearGradient10" spreadMethod="pad">
        <stop stop-opacity="0.8627" stop-color="rgb(255,255,255)" offset="0%"/>
        <stop stop-opacity="0.1255" stop-color="rgb(255,255,255)" offset="100%"/>
      </linearGradient>
      <linearGradient x1="499" gradientUnits="userSpaceOnUse" x2="504.0062" y1="464" y2="492.252" id="linearGradient11" spreadMethod="pad">
        <stop stop-opacity="0.8627" stop-color="rgb(255,255,255)" offset="0%"/>
        <stop stop-opacity="0.1255" stop-color="rgb(255,255,255)" offset="100%"/>
      </linearGradient>
      <linearGradient x1="672" gradientUnits="userSpaceOnUse" x2="677.0062" y1="464" y2="492.252" id="linearGradient12" spreadMethod="pad">
        <stop stop-opacity="0.8627" stop-color="rgb(255,255,255)" offset="0%"/>
        <stop stop-opacity="0.1255" stop-color="rgb(255,255,255)" offset="100%"/>
      </linearGradient>
      <clipPath clipPathUnits="userSpaceOnUse" id="clipPath1">
        <path d="M0 0 L937 0 L937 627 L0 627 L0 0 Z"/>
      </clipPath>
      <clipPath clipPathUnits="userSpaceOnUse" id="clipPath2">
        <path d="M-155 187 L961.9434 187 L961.9434 934.4103 L-155 934.4103 L-155 187 Z"/>
      </clipPath>
    </defs>
    <g fill="white" text-rendering="geometricPrecision" shape-rendering="geometricPrecision" transform="scale(0.8389,0.8389) translate(155,-187)" stroke="white">
      <rect x="-155" width="1117" height="748" y="187" clip-path="url(#clipPath2)" stroke="none"/>
    </g>
    <g fill="rgb(255,153,0)" text-rendering="geometricPrecision" shape-rendering="geometricPrecision" transform="matrix(0.8389,0,0,0.8389,130.029,-156.8737)" stroke="rgb(255,153,0)">
      <rect x="326" y="619.5" clip-path="url(#clipPath2)" width="109" rx="5" ry="5" height="38" stroke="none"/>
      <path fill="url(#linearGradient1)" d="M328.5 629.5 Q328.5 622 336 622 L386.85 622 Q394.35 622 394.35 629.5 Q394.35 637 368.925 642.2 Q343.5 647.4 336 647.4 Q328.5 647.4 328.5 639.9 Z" clip-path="url(#clipPath2)" stroke="none"/>
    </g>
    <g text-rendering="geometricPrecision" stroke-miterlimit="1.45" shape-rendering="geometricPrecision" font-family="sans-serif" transform="matrix(0.8389,0,0,0.8389,130.029,-156.8737)" stroke-linecap="butt">
      <text x="361.624" xml:space="preserve" y="642.6543" clip-path="url(#clipPath2)" stroke="none">OSD 1</text>
    </g>
    <g fill="rgb(255,153,0)" text-rendering="geometricPrecision" shape-rendering="geometricPrecision" transform="matrix(0.8389,0,0,0.8389,130.029,-156.8737)" stroke="rgb(255,153,0)">
      <rect x="326" y="657.5" clip-path="url(#clipPath2)" width="109" rx="5" ry="5" height="38" stroke="none"/>
      <path fill="url(#linearGradient2)" d="M328.5 667.5 Q328.5 660 336 660 L386.85 660 Q394.35 660 394.35 667.5 Q394.35 675 368.925 680.2 Q343.5 685.4 336 685.4 Q328.5 685.4 328.5 677.9 Z" clip-path="url(#clipPath2)" stroke="none"/>
    </g>
    <g text-rendering="geometricPrecision" stroke-miterlimit="1.45" shape-rendering="geometricPrecision" font-family="sans-serif" transform="matrix(0.8389,0,0,0.8389,130.029,-156.8737)" stroke-linecap="butt">
      <text x="361.624" xml:space="preserve" y="680.6543" clip-path="url(#clipPath2)" stroke="none">OSD 2</text>
    </g>
    <g fill="rgb(255,153,0)" text-rendering="geometricPrecision" shape-rendering="geometricPrecision" transform="matrix(0.8389,0,0,0.8389,130.029,-156.8737)" stroke="rgb(255,153,0)">
      <rect x="326" y="695.5" clip-path="url(#clipPath2)" width="109" rx="5" ry="5" height="38" stroke="none"/>
      <path fill="url(#linearGradient3)" d="M328.5 705.5 Q328.5 698 336 698 L386.85 698 Q394.35 698 394.35 705.5 Q394.35 713 368.925 718.2 Q343.5 723.4 336 723.4 Q328.5 723.4 328.5 715.9 Z" clip-path="url(#clipPath2)" stroke="none"/>
    </g>
    <g text-rendering="geometricPrecision" stroke-miterlimit="1.45" shape-rendering="geometricPrecision" font-family="sans-serif" transform="matrix(0.8389,0,0,0.8389,130.029,-156.8737)" stroke-linecap="butt">
      <text x="360.9531" xml:space="preserve" y="718.6543" clip-path="url(#clipPath2)" stroke="none">OSD N</text>
    </g>
    <g text-rendering="geometricPrecision" stroke-miterlimit="1.45" shape-rendering="geometricPrecision" transform="matrix(0.8389,0,0,0.8389,130.029,-156.8737)" stroke-linecap="butt">
      <rect fill="none" x="309" width="143" height="174" y="610" clip-path="url(#clipPath2)"/>
    </g>
    <g fill="rgb(255,204,0)" text-rendering="geometricPrecision" shape-rendering="geometricPrecision" transform="matrix(0.8389,0,0,0.8389,130.029,-156.8737)" stroke="rgb(255,204,0)">
      <rect x="309" width="143" height="38" y="746" clip-path="url(#clipPath2)" stroke="none"/>
    </g>
    <g text-rendering="geometricPrecision" stroke-miterlimit="1.45" shape-rendering="geometricPrecision" font-family="sans-serif" transform="matrix(0.8389,0,0,0.8389,130.029,-156.8737)" stroke-linecap="butt">
      <text x="359.1162" xml:space="preserve" y="769.1543" clip-path="url(#clipPath2)" stroke="none">Node 1</text>
      <rect fill="none" x="309" width="143" height="38" y="746" clip-path="url(#clipPath2)"/>
    </g>
    <g fill="rgb(255,153,0)" text-rendering="geometricPrecision" shape-rendering="geometricPrecision" transform="matrix(0.8389,0,0,0.8389,130.029,-156.8737)" stroke="rgb(255,153,0)">
      <rect x="499" y="619.5" clip-path="url(#clipPath2)" width="109" rx="5" ry="5" height="38" stroke="none"/>
      <path fill="url(#linearGradient4)" d="M501.5 629.5 Q501.5 622 509 622 L559.85 622 Q567.35 622 567.35 629.5 Q567.35 637 541.925 642.2 Q516.5 647.4 509 647.4 Q501.5 647.4 501.5 639.9 Z" clip-path="url(#clipPath2)" stroke="none"/>
    </g>
    <g text-rendering="geometricPrecision" stroke-miterlimit="1.45" shape-rendering="geometricPrecision" font-family="sans-serif" transform="matrix(0.8389,0,0,0.8389,130.029,-156.8737)" stroke-linecap="butt">
      <text x="534.624" xml:space="preserve" y="642.6543" clip-path="url(#clipPath2)" stroke="none">OSD 1</text>
    </g>
    <g fill="rgb(255,153,0)" text-rendering="geometricPrecision" shape-rendering="geometricPrecision" transform="matrix(0.8389,0,0,0.8389,130.029,-156.8737)" stroke="rgb(255,153,0)">
      <rect x="499" y="657.5" clip-path="url(#clipPath2)" width="109" rx="5" ry="5" height="38" stroke="none"/>
      <path fill="url(#linearGradient5)" d="M501.5 667.5 Q501.5 660 509 660 L559.85 660 Q567.35 660 567.35 667.5 Q567.35 675 541.925 680.2 Q516.5 685.4 509 685.4 Q501.5 685.4 501.5 677.9 Z" clip-path="url(#clipPath2)" stroke="none"/>
    </g>
    <g text-rendering="geometricPrecision" stroke-miterlimit="1.45" shape-rendering="geometricPrecision" font-family="sans-serif" transform="matrix(0.8389,0,0,0.8389,130.029,-156.8737)" stroke-linecap="butt">
      <text x="534.624" xml:space="preserve" y="680.6543" clip-path="url(#clipPath2)" stroke="none">OSD 2</text>
    </g>
    <g fill="rgb(255,153,0)" text-rendering="geometricPrecision" shape-rendering="geometricPrecision" transform="matrix(0.8389,0,0,0.8389,130.029,-156.8737)" stroke="rgb(255,153,0)">
      <rect x="499" y="695.5" clip-path="url(#clipPath2)" width="109" rx="5" ry="5" height="38" stroke="none"/>
      <path fill="url(#linearGradient6)" d="M501.5 705.5 Q501.5 698 509 698 L559.85 698 Q567.35 698 567.35 705.5 Q567.35 713 541.925 718.2 Q516.5 723.4 509 723.4 Q501.5 723.4 501.5 715.9 Z" clip-path="url(#clipPath2)" stroke="none"/>
    </g>
    <g text-rendering="geometricPrecision" stroke-miterlimit="1.45" shape-rendering="geometricPrecision" font-family="sans-serif" transform="matrix(0.8389,0,0,0.8389,130.029,-156.8737)" stroke-linecap="butt">
      <text x="533.9531" xml:space="preserve" y="718.6543" clip-path="url(#clipPath2)" stroke="none">OSD N</text>
    </g>
    <g text-rendering="geometricPrecision" stroke-miterlimit="1.45" shape-rendering="geometricPrecision" transform="matrix(0.8389,0,0,0.8389,130.029,-156.8737)" stroke-linecap="butt">
      <rect fill="none" x="482" width="143" height="174" y="610" clip-path="url(#clipPath2)"/>
    </g>
    <g fill="rgb(255,204,0)" text-rendering="geometricPrecision" shape-rendering="geometricPrecision" transform="matrix(0.8389,0,0,0.8389,130.029,-156.8737)" stroke="rgb(255,204,0)">
      <rect x="482" width="143" height="38" y="746" clip-path="url(#clipPath2)" stroke="none"/>
    </g>
    <g text-rendering="geometricPrecision" stroke-miterlimit="1.45" shape-rendering="geometricPrecision" font-family="sans-serif" transform="matrix(0.8389,0,0,0.8389,130.029,-156.8737)" stroke-linecap="butt">
      <text x="532.1162" xml:space="preserve" y="769.1543" clip-path="url(#clipPath2)" stroke="none">Node 2</text>
      <rect fill="none" x="482" width="143" height="38" y="746" clip-path="url(#clipPath2)"/>
    </g>
    <g fill="rgb(255,153,0)" text-rendering="geometricPrecision" shape-rendering="geometricPrecision" transform="matrix(0.8389,0,0,0.8389,130.029,-156.8737)" stroke="rgb(255,153,0)">
      <rect x="672" y="619.5" clip-path="url(#clipPath2)" width="109" rx="5" ry="5" height="38" stroke="none"/>
      <path fill="url(#linearGradient7)" d="M674.5 629.5 Q674.5 622 682 622 L732.85 622 Q740.35 622 740.35 629.5 Q740.35 637 714.925 642.2 Q689.5 647.4 682 647.4 Q674.5 647.4 674.5 639.9 Z" clip-path="url(#clipPath2)" stroke="none"/>
    </g>
    <g text-rendering="geometricPrecision" stroke-miterlimit="1.45" shape-rendering="geometricPrecision" font-family="sans-serif" transform="matrix(0.8389,0,0,0.8389,130.029,-156.8737)" stroke-linecap="butt">
      <text x="707.624" xml:space="preserve" y="642.6543" clip-path="url(#clipPath2)" stroke="none">OSD 1</text>
    </g>
    <g fill="rgb(255,153,0)" text-rendering="geometricPrecision" shape-rendering="geometricPrecision" transform="matrix(0.8389,0,0,0.8389,130.029,-156.8737)" stroke="rgb(255,153,0)">
      <rect x="672" y="657.5" clip-path="url(#clipPath2)" width="109" rx="5" ry="5" height="38" stroke="none"/>
      <path fill="url(#linearGradient8)" d="M674.5 667.5 Q674.5 660 682 660 L732.85 660 Q740.35 660 740.35 667.5 Q740.35 675 714.925 680.2 Q689.5 685.4 682 685.4 Q674.5 685.4 674.5 677.9 Z" clip-path="url(#clipPath2)" stroke="none"/>
    </g>
    <g text-rendering="geometricPrecision" stroke-miterlimit="1.45" shape-rendering="geometricPrecision" font-family="sans-serif" transform="matrix(0.8389,0,0,0.8389,130.029,-156.8737)" stroke-linecap="butt">
      <text x="707.624" xml:space="preserve" y="680.6543" clip-path="url(#clipPath2)" stroke="none">OSD 2</text>
    </g>
    <g fill="rgb(255,153,0)" text-rendering="geometricPrecision" shape-rendering="geometricPrecision" transform="matrix(0.8389,0,0,0.8389,130.029,-156.8737)" stroke="rgb(255,153,0)">
      <rect x="672" y="695.5" clip-path="url(#clipPath2)" width="109" rx="5" ry="5" height="38" stroke="none"/>
      <path fill="url(#linearGradient9)" d="M674.5 705.5 Q674.5 698 682 698 L732.85 698 Q740.35 698 740.35 705.5 Q740.35 713 714.925 718.2 Q689.5 723.4 682 723.4 Q674.5 723.4 674.5 715.9 Z" clip-path="url(#clipPath2)" stroke="none"/>
    </g>
    <g text-rendering="geometricPrecision" stroke-miterlimit="1.45" shape-rendering="geometricPrecision" font-family="sans-serif" transform="matrix(0.8389,0,0,0.8389,130.029,-156.8737)" stroke-linecap="butt">
      <text x="706.9531" xml:space="preserve" y="718.6543" clip-path="url(#clipPath2)" stroke="none">OSD N</text>
    </g>
    <g text-rendering="geometricPrecision" stroke-miterlimit="1.45" shape-rendering="geometricPrecision" transform="matrix(0.8389,0,0,0.8389,130.029,-156.8737)" stroke-linecap="butt">
      <rect fill="none" x="655" width="143" height="174" y="610" clip-path="url(#clipPath2)"/>
    </g>
    <g fill="rgb(255,204,0)" text-rendering="geometricPrecision" shape-rendering="geometricPrecision" transform="matrix(0.8389,0,0,0.8389,130.029,-156.8737)" stroke="rgb(255,204,0)">
      <rect x="655" width="143" height="38" y="746" clip-path="url(#clipPath2)" stroke="none"/>
    </g>
    <g text-rendering="geometricPrecision" stroke-miterlimit="1.45" shape-rendering="geometricPrecision" font-family="sans-serif" transform="matrix(0.8389,0,0,0.8389,130.029,-156.8737)" stroke-linecap="butt">
      <text x="704.4453" xml:space="preserve" y="769.1543" clip-path="url(#clipPath2)" stroke="none">Node N</text>
      <rect fill="none" x="655" width="143" height="38" y="746" clip-path="url(#clipPath2)"/>
    </g>
    <g fill="rgb(255,153,0)" text-rendering="geometricPrecision" shape-rendering="geometricPrecision" transform="matrix(0.8389,0,0,0.8389,130.029,-156.8737)" stroke="rgb(255,153,0)">
      <rect x="326" y="464" clip-path="url(#clipPath2)" width="109" rx="5" ry="5" height="38" stroke="none"/>
      <path fill="url(#linearGradient10)" d="M328.5 474 Q328.5 466.5 336 466.5 L386.85 466.5 Q394.35 466.5 394.35 474 Q394.35 481.5 368.925 486.7 Q343.5 491.9 336 491.9 Q328.5 491.9 328.5 484.4 Z" clip-path="url(#clipPath2)" stroke="none"/>
    </g>
    <g text-rendering="geometricPrecision" stroke-miterlimit="1.45" shape-rendering="geometricPrecision" font-family="sans-serif" transform="matrix(0.8389,0,0,0.8389,130.029,-156.8737)" stroke-linecap="butt">
      <text x="349.7822" xml:space="preserve" y="487.1543" clip-path="url(#clipPath2)" stroke="none">Crushmap</text>
    </g>
    <g text-rendering="geometricPrecision" stroke-miterlimit="1.45" shape-rendering="geometricPrecision" transform="matrix(0.8389,0,0,0.8389,130.029,-156.8737)" stroke-linecap="butt">
      <rect fill="none" x="309" width="143" height="174" y="396" clip-path="url(#clipPath2)"/>
    </g>
    <g fill="rgb(255,204,0)" text-rendering="geometricPrecision" shape-rendering="geometricPrecision" transform="matrix(0.8389,0,0,0.8389,130.029,-156.8737)" stroke="rgb(255,204,0)">
      <rect x="309" width="143" height="38" y="532" clip-path="url(#clipPath2)" stroke="none"/>
    </g>
    <g text-rendering="geometricPrecision" stroke-miterlimit="1.45" shape-rendering="geometricPrecision" font-family="sans-serif" transform="matrix(0.8389,0,0,0.8389,130.029,-156.8737)" stroke-linecap="butt">
      <text x="360.3877" xml:space="preserve" y="555.1543" clip-path="url(#clipPath2)" stroke="none">MON 1</text>
      <rect fill="none" x="309" width="143" height="38" y="532" clip-path="url(#clipPath2)"/>
    </g>
    <g fill="rgb(255,153,0)" text-rendering="geometricPrecision" shape-rendering="geometricPrecision" transform="matrix(0.8389,0,0,0.8389,130.029,-156.8737)" stroke="rgb(255,153,0)">
      <rect x="499" y="464" clip-path="url(#clipPath2)" width="109" rx="5" ry="5" height="38" stroke="none"/>
      <path fill="url(#linearGradient11)" d="M501.5 474 Q501.5 466.5 509 466.5 L559.85 466.5 Q567.35 466.5 567.35 474 Q567.35 481.5 541.925 486.7 Q516.5 491.9 509 491.9 Q501.5 491.9 501.5 484.4 Z" clip-path="url(#clipPath2)" stroke="none"/>
    </g>
    <g text-rendering="geometricPrecision" stroke-miterlimit="1.45" shape-rendering="geometricPrecision" font-family="sans-serif" transform="matrix(0.8389,0,0,0.8389,130.029,-156.8737)" stroke-linecap="butt">
      <text x="522.7822" xml:space="preserve" y="487.1543" clip-path="url(#clipPath2)" stroke="none">Crushmap</text>
    </g>
    <g text-rendering="geometricPrecision" stroke-miterlimit="1.45" shape-rendering="geometricPrecision" transform="matrix(0.8389,0,0,0.8389,130.029,-156.8737)" stroke-linecap="butt">
      <rect fill="none" x="482" width="143" height="174" y="396" clip-path="url(#clipPath2)"/>
    </g>
    <g fill="rgb(255,204,0)" text-rendering="geometricPrecision" shape-rendering="geometricPrecision" transform="matrix(0.8389,0,0,0.8389,130.029,-156.8737)" stroke="rgb(255,204,0)">
      <rect x="482" width="143" height="38" y="532" clip-path="url(#clipPath2)" stroke="none"/>
    </g>
    <g text-rendering="geometricPrecision" stroke-miterlimit="1.45" shape-rendering="geometricPrecision" font-family="sans-serif" transform="matrix(0.8389,0,0,0.8389,130.029,-156.8737)" stroke-linecap="butt">
      <text x="533.3877" xml:space="preserve" y="555.1543" clip-path="url(#clipPath2)" stroke="none">MON 2</text>
      <rect fill="none" x="482" width="143" height="38" y="532" clip-path="url(#clipPath2)"/>
    </g>
    <g fill="rgb(255,153,0)" text-rendering="geometricPrecision" shape-rendering="geometricPrecision" transform="matrix(0.8389,0,0,0.8389,130.029,-156.8737)" stroke="rgb(255,153,0)">
      <rect x="672" y="464" clip-path="url(#clipPath2)" width="109" rx="5" ry="5" height="38" stroke="none"/>
      <path fill="url(#linearGradient12)" d="M674.5 474 Q674.5 466.5 682 466.5 L732.85 466.5 Q740.35 466.5 740.35 474 Q740.35 481.5 714.925 486.7 Q689.5 491.9 682 491.9 Q674.5 491.9 674.5 484.4 Z" clip-path="url(#clipPath2)" stroke="none"/>
    </g>
    <g text-rendering="geometricPrecision" stroke-miterlimit="1.45" shape-rendering="geometricPrecision" font-family="sans-serif" transform="matrix(0.8389,0,0,0.8389,130.029,-156.8737)" stroke-linecap="butt">
      <text x="695.7822" xml:space="preserve" y="487.1543" clip-path="url(#clipPath2)" stroke="none">Crushmap</text>
    </g>
    <g text-rendering="geometricPrecision" stroke-miterlimit="1.45" shape-rendering="geometricPrecision" transform="matrix(0.8389,0,0,0.8389,130.029,-156.8737)" stroke-linecap="butt">
      <rect fill="none" x="655" width="143" height="174" y="396" clip-path="url(#clipPath2)"/>
    </g>
    <g fill="rgb(255,204,0)" text-rendering="geometricPrecision" shape-rendering="geometricPrecision" transform="matrix(0.8389,0,0,0.8389,130.029,-156.8737)" stroke="rgb(255,204,0)">
      <rect x="655" width="143" height="38" y="532" clip-path="url(#clipPath2)" stroke="none"/>
    </g>
    <g text-rendering="geometricPrecision" stroke-miterlimit="1.45" shape-rendering="geometricPrecision" font-family="sans-serif" transform="matrix(0.8389,0,0,0.8389,130.029,-156.8737)" stroke-linecap="butt">
      <text x="706.3877" xml:space="preserve" y="555.1543" clip-path="url(#clipPath2)" stroke="none">MON 3</text>
      <rect fill="none" x="655" width="143" height="38" y="532" clip-path="url(#clipPath2)"/>
      <path fill="none" d="M380.5 610 L380.5 578" clip-path="url(#clipPath2)" stroke="blue"/>
      <path fill="blue" d="M380.5 570 L375.5 582 L380.5 579 L385.5 582 Z" clip-path="url(#clipPath2)" stroke="none"/>
      <path fill="none" d="M482 636.6589 L409.1275 575.1596" clip-path="url(#clipPath2)" stroke="blue"/>
      <path fill="blue" d="M403.0137 570 L408.9596 581.5605 L409.8917 575.8046 L415.4091 573.9183 Z" clip-path="url(#clipPath2)" stroke="none"/>
      <path fill="none" d="M655 666.8295 L432.8981 573.1102" clip-path="url(#clipPath2)" stroke="blue"/>
      <path fill="blue" d="M425.5274 570 L434.6396 579.2719 L433.8194 573.499 L438.5273 570.0586 Z" clip-path="url(#clipPath2)" stroke="none"/>
      <path fill="none" d="M380.5 570 L380.5 602" clip-path="url(#clipPath2)" stroke="blue"/>
      <path fill="blue" d="M380.5 610 L385.5 598 L380.5 601 L375.5 598 Z" clip-path="url(#clipPath2)" stroke="none"/>
      <path fill="none" d="M403.0137 570 L475.8862 631.4993" clip-path="url(#clipPath2)" stroke="blue"/>
      <path fill="blue" d="M482 636.6589 L476.054 625.0984 L475.122 630.8544 L469.6046 632.7407 Z" clip-path="url(#clipPath2)" stroke="none"/>
      <path fill="none" d="M425.5274 570 L647.6293 663.7193" clip-path="url(#clipPath2)" stroke="blue"/>
      <path fill="blue" d="M655 666.8295 L645.8878 657.5576 L646.708 663.3305 L642.0001 666.7709 Z" clip-path="url(#clipPath2)" stroke="none"/>
      <path fill="none" d="M452 483 L473.9722 483" clip-path="url(#clipPath2)"/>
      <path d="M481.9722 483 L469.9722 478 L472.9722 483 L469.9722 488 Z" clip-path="url(#clipPath2)" stroke="none"/>
      <path fill="none" d="M482 483 L452 483" clip-path="url(#clipPath2)"/>
      <path fill="none" d="M482 483 L460.033 483" clip-path="url(#clipPath2)"/>
      <path d="M452.033 483 L464.033 488 L461.033 483 L464.033 478 Z" clip-path="url(#clipPath2)" stroke="none"/>
      <path fill="none" d="M553.5 610 L553.5 578.0175" clip-path="url(#clipPath2)" stroke="rgb(153,204,0)"/>
      <path fill="rgb(153,204,0)" d="M553.5 570.0175 L548.5 582.0175 L553.5 579.0175 L558.5 582.0175 Z" clip-path="url(#clipPath2)" stroke="none"/>
      <path fill="none" d="M655 636.6589 L582.1275 575.1596" clip-path="url(#clipPath2)" stroke="rgb(153,204,0)"/>
      <path fill="rgb(153,204,0)" d="M576.0137 570 L581.9597 581.5605 L582.8917 575.8046 L588.4091 573.9183 Z" clip-path="url(#clipPath2)" stroke="none"/>
      <path fill="none" d="M452 636.6589 L524.8725 575.1596" clip-path="url(#clipPath2)" stroke="rgb(153,204,0)"/>
      <path fill="rgb(153,204,0)" d="M530.9863 570 L518.5909 573.9183 L524.1083 575.8046 L525.0403 581.5605 Z" clip-path="url(#clipPath2)" stroke="none"/>
      <path fill="none" d="M553.5 570 L553.5 602" clip-path="url(#clipPath2)" stroke="rgb(153,204,0)"/>
      <path fill="rgb(153,204,0)" d="M553.5 610 L558.5 598 L553.5 601 L548.5 598 Z" clip-path="url(#clipPath2)" stroke="none"/>
      <path fill="none" d="M576.0137 570 L648.8862 631.4993" clip-path="url(#clipPath2)" stroke="rgb(153,204,0)"/>
      <path fill="rgb(153,204,0)" d="M655 636.6589 L649.0541 625.0984 L648.122 630.8544 L642.6046 632.7406 Z" clip-path="url(#clipPath2)" stroke="none"/>
      <path fill="none" d="M530.9863 570 L458.1138 631.4993" clip-path="url(#clipPath2)" stroke="rgb(153,204,0)"/>
      <path fill="rgb(153,204,0)" d="M452 636.6589 L464.3954 632.7407 L458.878 630.8544 L457.946 625.0984 Z" clip-path="url(#clipPath2)" stroke="none"/>
      <path fill="none" d="M625 483 L647 483" clip-path="url(#clipPath2)"/>
      <path d="M655 483 L643 478 L646 483 L643 488 Z" clip-path="url(#clipPath2)" stroke="none"/>
      <path fill="none" d="M655 483 L633 483" clip-path="url(#clipPath2)"/>
      <path d="M625 483 L637 488 L634 483 L637 478 Z" clip-path="url(#clipPath2)" stroke="none"/>
      <path fill="none" d="M726.5 610 L726.5 578.0209" clip-path="url(#clipPath2)" stroke="red"/>
      <path fill="red" d="M726.5 570.0209 L721.5 582.0209 L726.5 579.0209 L731.5 582.0209 Z" clip-path="url(#clipPath2)" stroke="none"/>
      <path fill="none" d="M625 636.6589 L697.8725 575.1596" clip-path="url(#clipPath2)" stroke="red"/>
      <path fill="red" d="M703.9863 570 L691.5909 573.9183 L697.1083 575.8046 L698.0403 581.5605 Z" clip-path="url(#clipPath2)" stroke="none"/>
      <path fill="none" d="M452 666.8295 L674.1019 573.1102" clip-path="url(#clipPath2)" stroke="red"/>
      <path fill="red" d="M681.4726 570 L668.4727 570.0586 L673.1806 573.499 L672.3604 579.2719 Z" clip-path="url(#clipPath2)" stroke="none"/>
      <path fill="none" d="M726.5 570 L726.5 602" clip-path="url(#clipPath2)" stroke="red"/>
      <path fill="red" d="M726.5 610 L731.5 598 L726.5 601 L721.5 598 Z" clip-path="url(#clipPath2)" stroke="none"/>
      <path fill="none" d="M703.9863 570 L631.1138 631.4993" clip-path="url(#clipPath2)" stroke="red"/>
      <path fill="red" d="M625 636.6589 L637.3954 632.7406 L631.878 630.8544 L630.9459 625.0984 Z" clip-path="url(#clipPath2)" stroke="none"/>
      <path fill="none" d="M681.4726 570 L459.3707 663.7193" clip-path="url(#clipPath2)" stroke="red"/>
      <path fill="red" d="M452 666.8295 L464.9999 666.7709 L460.292 663.3305 L461.1122 657.5576 Z" clip-path="url(#clipPath2)" stroke="none"/>
    </g>
  </g>
</svg>
