<?xml version="1.0" encoding="UTF-8"?><svg xmlns="http://www.w3.org/2000/svg" xmlns:xlink="http://www.w3.org/1999/xlink" fill-opacity="1" color-rendering="auto" color-interpolation="auto" stroke="black" text-rendering="auto" stroke-linecap="square" width="937" stroke-miterlimit="10" stroke-opacity="1" shape-rendering="auto" fill="black" stroke-dasharray="none" font-weight="normal" stroke-width="1" height="627" font-family="'Dialog'" font-style="normal" stroke-linejoin="miter" font-size="12" stroke-dashoffset="0" image-rendering="auto">
  <!--Generated by ySVG 2.5-->
  <defs id="genericDefs"/>
  <g>
    <defs id="defs1">
      <linearGradient x1="49.4375" gradientUnits="userSpaceOnUse" x2="54.4437" y1="535.125" y2="563.377" id="linearGradient1" spreadMethod="pad">
        <stop stop-opacity="0.8627" stop-color="rgb(255,255,255)" offset="0%"/>
        <stop stop-opacity="0.1255" stop-color="rgb(255,255,255)" offset="100%"/>
      </linearGradient>
      <linearGradient x1="49.4375" gradientUnits="userSpaceOnUse" x2="54.4437" y1="573.125" y2="601.377" id="linearGradient2" spreadMethod="pad">
        <stop stop-opacity="0.8627" stop-color="rgb(255,255,255)" offset="0%"/>
        <stop stop-opacity="0.1255" stop-color="rgb(255,255,255)" offset="100%"/>
      </linearGradient>
      <linearGradient x1="49.4375" gradientUnits="userSpaceOnUse" x2="54.4437" y1="611.125" y2="639.377" id="linearGradient3" spreadMethod="pad">
        <stop stop-opacity="0.8627" stop-color="rgb(255,255,255)" offset="0%"/>
        <stop stop-opacity="0.1255" stop-color="rgb(255,255,255)" offset="100%"/>
      </linearGradient>
      <linearGradient x1="222.4375" gradientUnits="userSpaceOnUse" x2="227.4437" y1="535.125" y2="563.377" id="linearGradient4" spreadMethod="pad">
        <stop stop-opacity="0.8627" stop-color="rgb(255,255,255)" offset="0%"/>
        <stop stop-opacity="0.1255" stop-color="rgb(255,255,255)" offset="100%"/>
      </linearGradient>
      <linearGradient x1="222.4375" gradientUnits="userSpaceOnUse" x2="227.4437" y1="573.125" y2="601.377" id="linearGradient5" spreadMethod="pad">
        <stop stop-opacity="0.8627" stop-color="rgb(255,255,255)" offset="0%"/>
        <stop stop-opacity="0.1255" stop-color="rgb(255,255,255)" offset="100%"/>
      </linearGradient>
      <linearGradient x1="222.4375" gradientUnits="userSpaceOnUse" x2="227.4437" y1="611.125" y2="639.377" id="linearGradient6" spreadMethod="pad">
        <stop stop-opacity="0.8627" stop-color="rgb(255,255,255)" offset="0%"/>
        <stop stop-opacity="0.1255" stop-color="rgb(255,255,255)" offset="100%"/>
      </linearGradient>
      <linearGradient x1="395.4375" gradientUnits="userSpaceOnUse" x2="400.4437" y1="535.125" y2="563.377" id="linearGradient7" spreadMethod="pad">
        <stop stop-opacity="0.8627" stop-color="rgb(255,255,255)" offset="0%"/>
        <stop stop-opacity="0.1255" stop-color="rgb(255,255,255)" offset="100%"/>
      </linearGradient>
      <linearGradient x1="395.4375" gradientUnits="userSpaceOnUse" x2="400.4437" y1="573.125" y2="601.377" id="linearGradient8" spreadMethod="pad">
        <stop stop-opacity="0.8627" stop-color="rgb(255,255,255)" offset="0%"/>
        <stop stop-opacity="0.1255" stop-color="rgb(255,255,255)" offset="100%"/>
      </linearGradient>
      <linearGradient x1="395.4375" gradientUnits="userSpaceOnUse" x2="400.4437" y1="611.125" y2="639.377" id="linearGradient9" spreadMethod="pad">
        <stop stop-opacity="0.8627" stop-color="rgb(255,255,255)" offset="0%"/>
        <stop stop-opacity="0.1255" stop-color="rgb(255,255,255)" offset="100%"/>
      </linearGradient>
      <linearGradient x1="49.4375" gradientUnits="userSpaceOnUse" x2="54.4437" y1="379.625" y2="407.877" id="linearGradient10" spreadMethod="pad">
        <stop stop-opacity="0.8627" stop-color="rgb(255,255,255)" offset="0%"/>
        <stop stop-opacity="0.1255" stop-color="rgb(255,255,255)" offset="100%"/>
      </linearGradient>
      <linearGradient x1="222.4375" gradientUnits="userSpaceOnUse" x2="227.4437" y1="379.625" y2="407.877" id="linearGradient11" spreadMethod="pad">
        <stop stop-opacity="0.8627" stop-color="rgb(255,255,255)" offset="0%"/>
        <stop stop-opacity="0.1255" stop-color="rgb(255,255,255)" offset="100%"/>
      </linearGradient>
      <linearGradient x1="395.4375" gradientUnits="userSpaceOnUse" x2="400.4437" y1="379.625" y2="407.877" id="linearGradient12" spreadMethod="pad">
        <stop stop-opacity="0.8627" stop-color="rgb(255,255,255)" offset="0%"/>
        <stop stop-opacity="0.1255" stop-color="rgb(255,255,255)" offset="100%"/>
      </linearGradient>
      <clipPath clipPathUnits="userSpaceOnUse" id="clipPath1">
        <path d="M0 0 L937 0 L937 627 L0 627 L0 0 Z"/>
      </clipPath>
      <clipPath clipPathUnits="userSpaceOnUse" id="clipPath2">
        <path d="M-170 187 L767 187 L767 814 L-170 814 L-170 187 Z"/>
      </clipPath>
    </defs>
    <g fill="white" text-rendering="geometricPrecision" shape-rendering="geometricPrecision" transform="translate(170,-187)" stroke="white">
      <rect x="-170" width="937" height="627" y="187" clip-path="url(#clipPath2)" stroke="none"/>
    </g>
    <g fill="rgb(255,153,0)" text-rendering="geometricPrecision" shape-rendering="geometricPrecision" transform="matrix(1,0,0,1,170,-187)" stroke="rgb(255,153,0)">
      <rect x="49.4375" y="535.125" clip-path="url(#clipPath2)" width="109" rx="5" ry="5" height="38" stroke="none"/>
      <path fill="url(#linearGradient1)" d="M51.9375 545.125 Q51.9375 537.625 59.4375 537.625 L110.2875 537.625 Q117.7875 537.625 117.7875 545.125 Q117.7875 552.625 92.3625 557.825 Q66.9375 563.025 59.4375 563.025 Q51.9375 563.025 51.9375 555.525 Z" clip-path="url(#clipPath2)" stroke="none"/>
    </g>
    <g text-rendering="geometricPrecision" stroke-miterlimit="1.45" shape-rendering="geometricPrecision" font-family="sans-serif" transform="matrix(1,0,0,1,170,-187)" stroke-linecap="butt">
      <text x="85.0615" xml:space="preserve" y="558.2793" clip-path="url(#clipPath2)" stroke="none">OSD 1</text>
    </g>
    <g fill="rgb(255,153,0)" text-rendering="geometricPrecision" shape-rendering="geometricPrecision" transform="matrix(1,0,0,1,170,-187)" stroke="rgb(255,153,0)">
      <rect x="49.4375" y="573.125" clip-path="url(#clipPath2)" width="109" rx="5" ry="5" height="38" stroke="none"/>
      <path fill="url(#linearGradient2)" d="M51.9375 583.125 Q51.9375 575.625 59.4375 575.625 L110.2875 575.625 Q117.7875 575.625 117.7875 583.125 Q117.7875 590.625 92.3625 595.825 Q66.9375 601.025 59.4375 601.025 Q51.9375 601.025 51.9375 593.525 Z" clip-path="url(#clipPath2)" stroke="none"/>
    </g>
    <g text-rendering="geometricPrecision" stroke-miterlimit="1.45" shape-rendering="geometricPrecision" font-family="sans-serif" transform="matrix(1,0,0,1,170,-187)" stroke-linecap="butt">
      <text x="85.0615" xml:space="preserve" y="596.2793" clip-path="url(#clipPath2)" stroke="none">OSD 2</text>
    </g>
    <g fill="rgb(255,153,0)" text-rendering="geometricPrecision" shape-rendering="geometricPrecision" transform="matrix(1,0,0,1,170,-187)" stroke="rgb(255,153,0)">
      <rect x="49.4375" y="611.125" clip-path="url(#clipPath2)" width="109" rx="5" ry="5" height="38" stroke="none"/>
      <path fill="url(#linearGradient3)" d="M51.9375 621.125 Q51.9375 613.625 59.4375 613.625 L110.2875 613.625 Q117.7875 613.625 117.7875 621.125 Q117.7875 628.625 92.3625 633.825 Q66.9375 639.025 59.4375 639.025 Q51.9375 639.025 51.9375 631.525 Z" clip-path="url(#clipPath2)" stroke="none"/>
    </g>
    <g text-rendering="geometricPrecision" stroke-miterlimit="1.45" shape-rendering="geometricPrecision" font-family="sans-serif" transform="matrix(1,0,0,1,170,-187)" stroke-linecap="butt">
      <text x="84.3906" xml:space="preserve" y="634.2793" clip-path="url(#clipPath2)" stroke="none">OSD N</text>
    </g>
    <g text-rendering="geometricPrecision" stroke-miterlimit="1.45" shape-rendering="geometricPrecision" transform="matrix(1,0,0,1,170,-187)" stroke-linecap="butt">
      <rect fill="none" x="32.4375" width="143" height="174" y="525.625" clip-path="url(#clipPath2)"/>
    </g>
    <g fill="rgb(255,204,0)" text-rendering="geometricPrecision" shape-rendering="geometricPrecision" transform="matrix(1,0,0,1,170,-187)" stroke="rgb(255,204,0)">
      <rect x="32.4375" width="143" height="38" y="661.625" clip-path="url(#clipPath2)" stroke="none"/>
    </g>
    <g text-rendering="geometricPrecision" stroke-miterlimit="1.45" shape-rendering="geometricPrecision" font-family="sans-serif" transform="matrix(1,0,0,1,170,-187)" stroke-linecap="butt">
      <text x="82.5537" xml:space="preserve" y="684.7793" clip-path="url(#clipPath2)" stroke="none">Node 1</text>
      <rect fill="none" x="32.4375" width="143" height="38" y="661.625" clip-path="url(#clipPath2)"/>
    </g>
    <g fill="rgb(255,153,0)" text-rendering="geometricPrecision" shape-rendering="geometricPrecision" transform="matrix(1,0,0,1,170,-187)" stroke="rgb(255,153,0)">
      <rect x="222.4375" y="535.125" clip-path="url(#clipPath2)" width="109" rx="5" ry="5" height="38" stroke="none"/>
      <path fill="url(#linearGradient4)" d="M224.9375 545.125 Q224.9375 537.625 232.4375 537.625 L283.2875 537.625 Q290.7875 537.625 290.7875 545.125 Q290.7875 552.625 265.3625 557.825 Q239.9375 563.025 232.4375 563.025 Q224.9375 563.025 224.9375 555.525 Z" clip-path="url(#clipPath2)" stroke="none"/>
    </g>
    <g text-rendering="geometricPrecision" stroke-miterlimit="1.45" shape-rendering="geometricPrecision" font-family="sans-serif" transform="matrix(1,0,0,1,170,-187)" stroke-linecap="butt">
      <text x="258.0615" xml:space="preserve" y="558.2793" clip-path="url(#clipPath2)" stroke="none">OSD 1</text>
    </g>
    <g fill="rgb(255,153,0)" text-rendering="geometricPrecision" shape-rendering="geometricPrecision" transform="matrix(1,0,0,1,170,-187)" stroke="rgb(255,153,0)">
      <rect x="222.4375" y="573.125" clip-path="url(#clipPath2)" width="109" rx="5" ry="5" height="38" stroke="none"/>
      <path fill="url(#linearGradient5)" d="M224.9375 583.125 Q224.9375 575.625 232.4375 575.625 L283.2875 575.625 Q290.7875 575.625 290.7875 583.125 Q290.7875 590.625 265.3625 595.825 Q239.9375 601.025 232.4375 601.025 Q224.9375 601.025 224.9375 593.525 Z" clip-path="url(#clipPath2)" stroke="none"/>
    </g>
    <g text-rendering="geometricPrecision" stroke-miterlimit="1.45" shape-rendering="geometricPrecision" font-family="sans-serif" transform="matrix(1,0,0,1,170,-187)" stroke-linecap="butt">
      <text x="258.0615" xml:space="preserve" y="596.2793" clip-path="url(#clipPath2)" stroke="none">OSD 2</text>
    </g>
    <g fill="rgb(255,153,0)" text-rendering="geometricPrecision" shape-rendering="geometricPrecision" transform="matrix(1,0,0,1,170,-187)" stroke="rgb(255,153,0)">
      <rect x="222.4375" y="611.125" clip-path="url(#clipPath2)" width="109" rx="5" ry="5" height="38" stroke="none"/>
      <path fill="url(#linearGradient6)" d="M224.9375 621.125 Q224.9375 613.625 232.4375 613.625 L283.2875 613.625 Q290.7875 613.625 290.7875 621.125 Q290.7875 628.625 265.3625 633.825 Q239.9375 639.025 232.4375 639.025 Q224.9375 639.025 224.9375 631.525 Z" clip-path="url(#clipPath2)" stroke="none"/>
    </g>
    <g text-rendering="geometricPrecision" stroke-miterlimit="1.45" shape-rendering="geometricPrecision" font-family="sans-serif" transform="matrix(1,0,0,1,170,-187)" stroke-linecap="butt">
      <text x="257.3906" xml:space="preserve" y="634.2793" clip-path="url(#clipPath2)" stroke="none">OSD N</text>
    </g>
    <g text-rendering="geometricPrecision" stroke-miterlimit="1.45" shape-rendering="geometricPrecision" transform="matrix(1,0,0,1,170,-187)" stroke-linecap="butt">
      <rect fill="none" x="205.4375" width="143" height="174" y="525.625" clip-path="url(#clipPath2)"/>
    </g>
    <g fill="rgb(255,204,0)" text-rendering="geometricPrecision" shape-rendering="geometricPrecision" transform="matrix(1,0,0,1,170,-187)" stroke="rgb(255,204,0)">
      <rect x="205.4375" width="143" height="38" y="661.625" clip-path="url(#clipPath2)" stroke="none"/>
    </g>
    <g text-rendering="geometricPrecision" stroke-miterlimit="1.45" shape-rendering="geometricPrecision" font-family="sans-serif" transform="matrix(1,0,0,1,170,-187)" stroke-linecap="butt">
      <text x="255.5537" xml:space="preserve" y="684.7793" clip-path="url(#clipPath2)" stroke="none">Node 2</text>
      <rect fill="none" x="205.4375" width="143" height="38" y="661.625" clip-path="url(#clipPath2)"/>
    </g>
    <g fill="rgb(255,153,0)" text-rendering="geometricPrecision" shape-rendering="geometricPrecision" transform="matrix(1,0,0,1,170,-187)" stroke="rgb(255,153,0)">
      <rect x="395.4375" y="535.125" clip-path="url(#clipPath2)" width="109" rx="5" ry="5" height="38" stroke="none"/>
      <path fill="url(#linearGradient7)" d="M397.9375 545.125 Q397.9375 537.625 405.4375 537.625 L456.2875 537.625 Q463.7875 537.625 463.7875 545.125 Q463.7875 552.625 438.3625 557.825 Q412.9375 563.025 405.4375 563.025 Q397.9375 563.025 397.9375 555.525 Z" clip-path="url(#clipPath2)" stroke="none"/>
    </g>
    <g text-rendering="geometricPrecision" stroke-miterlimit="1.45" shape-rendering="geometricPrecision" font-family="sans-serif" transform="matrix(1,0,0,1,170,-187)" stroke-linecap="butt">
      <text x="431.0615" xml:space="preserve" y="558.2793" clip-path="url(#clipPath2)" stroke="none">OSD 1</text>
    </g>
    <g fill="rgb(255,153,0)" text-rendering="geometricPrecision" shape-rendering="geometricPrecision" transform="matrix(1,0,0,1,170,-187)" stroke="rgb(255,153,0)">
      <rect x="395.4375" y="573.125" clip-path="url(#clipPath2)" width="109" rx="5" ry="5" height="38" stroke="none"/>
      <path fill="url(#linearGradient8)" d="M397.9375 583.125 Q397.9375 575.625 405.4375 575.625 L456.2875 575.625 Q463.7875 575.625 463.7875 583.125 Q463.7875 590.625 438.3625 595.825 Q412.9375 601.025 405.4375 601.025 Q397.9375 601.025 397.9375 593.525 Z" clip-path="url(#clipPath2)" stroke="none"/>
    </g>
    <g text-rendering="geometricPrecision" stroke-miterlimit="1.45" shape-rendering="geometricPrecision" font-family="sans-serif" transform="matrix(1,0,0,1,170,-187)" stroke-linecap="butt">
      <text x="431.0615" xml:space="preserve" y="596.2793" clip-path="url(#clipPath2)" stroke="none">OSD 2</text>
    </g>
    <g fill="rgb(255,153,0)" text-rendering="geometricPrecision" shape-rendering="geometricPrecision" transform="matrix(1,0,0,1,170,-187)" stroke="rgb(255,153,0)">
      <rect x="395.4375" y="611.125" clip-path="url(#clipPath2)" width="109" rx="5" ry="5" height="38" stroke="none"/>
      <path fill="url(#linearGradient9)" d="M397.9375 621.125 Q397.9375 613.625 405.4375 613.625 L456.2875 613.625 Q463.7875 613.625 463.7875 621.125 Q463.7875 628.625 438.3625 633.825 Q412.9375 639.025 405.4375 639.025 Q397.9375 639.025 397.9375 631.525 Z" clip-path="url(#clipPath2)" stroke="none"/>
    </g>
    <g text-rendering="geometricPrecision" stroke-miterlimit="1.45" shape-rendering="geometricPrecision" font-family="sans-serif" transform="matrix(1,0,0,1,170,-187)" stroke-linecap="butt">
      <text x="430.3906" xml:space="preserve" y="634.2793" clip-path="url(#clipPath2)" stroke="none">OSD N</text>
    </g>
    <g text-rendering="geometricPrecision" stroke-miterlimit="1.45" shape-rendering="geometricPrecision" transform="matrix(1,0,0,1,170,-187)" stroke-linecap="butt">
      <rect fill="none" x="378.4375" width="143" height="174" y="525.625" clip-path="url(#clipPath2)"/>
    </g>
    <g fill="rgb(255,204,0)" text-rendering="geometricPrecision" shape-rendering="geometricPrecision" transform="matrix(1,0,0,1,170,-187)" stroke="rgb(255,204,0)">
      <rect x="378.4375" width="143" height="38" y="661.625" clip-path="url(#clipPath2)" stroke="none"/>
    </g>
    <g text-rendering="geometricPrecision" stroke-miterlimit="1.45" shape-rendering="geometricPrecision" font-family="sans-serif" transform="matrix(1,0,0,1,170,-187)" stroke-linecap="butt">
      <text x="427.8828" xml:space="preserve" y="684.7793" clip-path="url(#clipPath2)" stroke="none">Node N</text>
      <rect fill="none" x="378.4375" width="143" height="38" y="661.625" clip-path="url(#clipPath2)"/>
    </g>
    <g fill="rgb(255,153,0)" text-rendering="geometricPrecision" shape-rendering="geometricPrecision" transform="matrix(1,0,0,1,170,-187)" stroke="rgb(255,153,0)">
      <rect x="49.4375" y="379.625" clip-path="url(#clipPath2)" width="109" rx="5" ry="5" height="38" stroke="none"/>
      <path fill="url(#linearGradient10)" d="M51.9375 389.625 Q51.9375 382.125 59.4375 382.125 L110.2875 382.125 Q117.7875 382.125 117.7875 389.625 Q117.7875 397.125 92.3625 402.325 Q66.9375 407.525 59.4375 407.525 Q51.9375 407.525 51.9375 400.025 Z" clip-path="url(#clipPath2)" stroke="none"/>
    </g>
    <g text-rendering="geometricPrecision" stroke-miterlimit="1.45" shape-rendering="geometricPrecision" font-family="sans-serif" transform="matrix(1,0,0,1,170,-187)" stroke-linecap="butt">
      <text x="73.2197" xml:space="preserve" y="402.7793" clip-path="url(#clipPath2)" stroke="none">Crushmap</text>
    </g>
    <g text-rendering="geometricPrecision" stroke-miterlimit="1.45" shape-rendering="geometricPrecision" transform="matrix(1,0,0,1,170,-187)" stroke-linecap="butt">
      <rect fill="none" x="32.4375" width="143" height="174" y="311.625" clip-path="url(#clipPath2)"/>
    </g>
    <g fill="rgb(255,204,0)" text-rendering="geometricPrecision" shape-rendering="geometricPrecision" transform="matrix(1,0,0,1,170,-187)" stroke="rgb(255,204,0)">
      <rect x="32.4375" width="143" height="38" y="447.625" clip-path="url(#clipPath2)" stroke="none"/>
    </g>
    <g text-rendering="geometricPrecision" stroke-miterlimit="1.45" shape-rendering="geometricPrecision" font-family="sans-serif" transform="matrix(1,0,0,1,170,-187)" stroke-linecap="butt">
      <text x="83.8252" xml:space="preserve" y="470.7793" clip-path="url(#clipPath2)" stroke="none">MON 1</text>
      <rect fill="none" x="32.4375" width="143" height="38" y="447.625" clip-path="url(#clipPath2)"/>
    </g>
    <g fill="rgb(255,153,0)" text-rendering="geometricPrecision" shape-rendering="geometricPrecision" transform="matrix(1,0,0,1,170,-187)" stroke="rgb(255,153,0)">
      <rect x="222.4375" y="379.625" clip-path="url(#clipPath2)" width="109" rx="5" ry="5" height="38" stroke="none"/>
      <path fill="url(#linearGradient11)" d="M224.9375 389.625 Q224.9375 382.125 232.4375 382.125 L283.2875 382.125 Q290.7875 382.125 290.7875 389.625 Q290.7875 397.125 265.3625 402.325 Q239.9375 407.525 232.4375 407.525 Q224.9375 407.525 224.9375 400.025 Z" clip-path="url(#clipPath2)" stroke="none"/>
    </g>
    <g text-rendering="geometricPrecision" stroke-miterlimit="1.45" shape-rendering="geometricPrecision" font-family="sans-serif" transform="matrix(1,0,0,1,170,-187)" stroke-linecap="butt">
      <text x="246.2197" xml:space="preserve" y="402.7793" clip-path="url(#clipPath2)" stroke="none">Crushmap</text>
    </g>
    <g text-rendering="geometricPrecision" stroke-miterlimit="1.45" shape-rendering="geometricPrecision" transform="matrix(1,0,0,1,170,-187)" stroke-linecap="butt">
      <rect fill="none" x="205.4375" width="143" height="174" y="311.625" clip-path="url(#clipPath2)"/>
    </g>
    <g fill="rgb(255,204,0)" text-rendering="geometricPrecision" shape-rendering="geometricPrecision" transform="matrix(1,0,0,1,170,-187)" stroke="rgb(255,204,0)">
      <rect x="205.4375" width="143" height="38" y="447.625" clip-path="url(#clipPath2)" stroke="none"/>
    </g>
    <g text-rendering="geometricPrecision" stroke-miterlimit="1.45" shape-rendering="geometricPrecision" font-family="sans-serif" transform="matrix(1,0,0,1,170,-187)" stroke-linecap="butt">
      <text x="256.8252" xml:space="preserve" y="470.7793" clip-path="url(#clipPath2)" stroke="none">MON 2</text>
      <rect fill="none" x="205.4375" width="143" height="38" y="447.625" clip-path="url(#clipPath2)"/>
    </g>
    <g fill="rgb(255,153,0)" text-rendering="geometricPrecision" shape-rendering="geometricPrecision" transform="matrix(1,0,0,1,170,-187)" stroke="rgb(255,153,0)">
      <rect x="395.4375" y="379.625" clip-path="url(#clipPath2)" width="109" rx="5" ry="5" height="38" stroke="none"/>
      <path fill="url(#linearGradient12)" d="M397.9375 389.625 Q397.9375 382.125 405.4375 382.125 L456.2875 382.125 Q463.7875 382.125 463.7875 389.625 Q463.7875 397.125 438.3625 402.325 Q412.9375 407.525 405.4375 407.525 Q397.9375 407.525 397.9375 400.025 Z" clip-path="url(#clipPath2)" stroke="none"/>
    </g>
    <g text-rendering="geometricPrecision" stroke-miterlimit="1.45" shape-rendering="geometricPrecision" font-family="sans-serif" transform="matrix(1,0,0,1,170,-187)" stroke-linecap="butt">
      <text x="419.2197" xml:space="preserve" y="402.7793" clip-path="url(#clipPath2)" stroke="none">Crushmap</text>
    </g>
    <g text-rendering="geometricPrecision" stroke-miterlimit="1.45" shape-rendering="geometricPrecision" transform="matrix(1,0,0,1,170,-187)" stroke-linecap="butt">
      <rect fill="none" x="378.4375" width="143" height="174" y="311.625" clip-path="url(#clipPath2)"/>
    </g>
    <g fill="rgb(255,204,0)" text-rendering="geometricPrecision" shape-rendering="geometricPrecision" transform="matrix(1,0,0,1,170,-187)" stroke="rgb(255,204,0)">
      <rect x="378.4375" width="143" height="38" y="447.625" clip-path="url(#clipPath2)" stroke="none"/>
    </g>
    <g text-rendering="geometricPrecision" stroke-miterlimit="1.45" shape-rendering="geometricPrecision" font-family="sans-serif" transform="matrix(1,0,0,1,170,-187)" stroke-linecap="butt">
      <text x="429.8252" xml:space="preserve" y="470.7793" clip-path="url(#clipPath2)" stroke="none">MON 3</text>
      <rect fill="none" x="378.4375" width="143" height="38" y="447.625" clip-path="url(#clipPath2)"/>
      <path fill="none" d="M103.9375 525.625 L103.9375 493.625" clip-path="url(#clipPath2)" stroke="blue"/>
      <path fill="blue" d="M103.9375 485.625 L98.9375 497.625 L103.9375 494.625 L108.9375 497.625 Z" clip-path="url(#clipPath2)" stroke="none"/>
      <path fill="none" d="M205.4375 552.2839 L132.565 490.7846" clip-path="url(#clipPath2)" stroke="blue"/>
      <path fill="blue" d="M126.4512 485.625 L132.3971 497.1855 L133.3292 491.4296 L138.8466 489.5433 Z" clip-path="url(#clipPath2)" stroke="none"/>
      <path fill="none" d="M378.4375 582.4545 L156.3356 488.7352" clip-path="url(#clipPath2)" stroke="blue"/>
      <path fill="blue" d="M148.9649 485.625 L158.0771 494.8969 L157.2569 489.1239 L161.9648 485.6836 Z" clip-path="url(#clipPath2)" stroke="none"/>
      <path fill="none" d="M103.9375 485.625 L103.9375 517.625" clip-path="url(#clipPath2)" stroke="blue"/>
      <path fill="blue" d="M103.9375 525.625 L108.9375 513.625 L103.9375 516.625 L98.9375 513.625 Z" clip-path="url(#clipPath2)" stroke="none"/>
      <path fill="none" d="M126.4512 485.625 L199.3237 547.1243" clip-path="url(#clipPath2)" stroke="blue"/>
      <path fill="blue" d="M205.4375 552.2839 L199.4916 540.7234 L198.5595 546.4794 L193.0421 548.3657 Z" clip-path="url(#clipPath2)" stroke="none"/>
      <path fill="none" d="M148.9649 485.625 L371.0668 579.3443" clip-path="url(#clipPath2)" stroke="blue"/>
      <path fill="blue" d="M378.4375 582.4545 L369.3253 573.1826 L370.1455 578.9555 L365.4376 582.3959 Z" clip-path="url(#clipPath2)" stroke="none"/>
      <path fill="none" d="M175.4375 398.625 L197.4097 398.625" clip-path="url(#clipPath2)"/>
      <path d="M205.4097 398.625 L193.4097 393.625 L196.4097 398.625 L193.4097 403.625 Z" clip-path="url(#clipPath2)" stroke="none"/>
      <path fill="none" d="M205.4375 398.625 L175.4375 398.625" clip-path="url(#clipPath2)"/>
      <path fill="none" d="M205.4375 398.625 L183.4705 398.625" clip-path="url(#clipPath2)"/>
      <path d="M175.4705 398.625 L187.4705 403.625 L184.4705 398.625 L187.4705 393.625 Z" clip-path="url(#clipPath2)" stroke="none"/>
      <path fill="none" d="M276.9375 525.625 L276.9375 493.6425" clip-path="url(#clipPath2)" stroke="rgb(153,204,0)"/>
      <path fill="rgb(153,204,0)" d="M276.9375 485.6425 L271.9375 497.6425 L276.9375 494.6425 L281.9375 497.6425 Z" clip-path="url(#clipPath2)" stroke="none"/>
      <path fill="none" d="M378.4375 552.2839 L305.565 490.7846" clip-path="url(#clipPath2)" stroke="rgb(153,204,0)"/>
      <path fill="rgb(153,204,0)" d="M299.4512 485.625 L305.3971 497.1855 L306.3292 491.4296 L311.8466 489.5433 Z" clip-path="url(#clipPath2)" stroke="none"/>
      <path fill="none" d="M175.4375 552.2839 L248.31 490.7846" clip-path="url(#clipPath2)" stroke="rgb(153,204,0)"/>
      <path fill="rgb(153,204,0)" d="M254.4238 485.625 L242.0284 489.5433 L247.5458 491.4296 L248.4779 497.1855 Z" clip-path="url(#clipPath2)" stroke="none"/>
      <path fill="none" d="M276.9375 485.625 L276.9375 517.625" clip-path="url(#clipPath2)" stroke="rgb(153,204,0)"/>
      <path fill="rgb(153,204,0)" d="M276.9375 525.625 L281.9375 513.625 L276.9375 516.625 L271.9375 513.625 Z" clip-path="url(#clipPath2)" stroke="none"/>
      <path fill="none" d="M299.4512 485.625 L372.3237 547.1243" clip-path="url(#clipPath2)" stroke="rgb(153,204,0)"/>
      <path fill="rgb(153,204,0)" d="M378.4375 552.2839 L372.4915 540.7234 L371.5595 546.4794 L366.0421 548.3657 Z" clip-path="url(#clipPath2)" stroke="none"/>
      <path fill="none" d="M254.4238 485.625 L181.5513 547.1243" clip-path="url(#clipPath2)" stroke="rgb(153,204,0)"/>
      <path fill="rgb(153,204,0)" d="M175.4375 552.2839 L187.8329 548.3657 L182.3155 546.4794 L181.3834 540.7234 Z" clip-path="url(#clipPath2)" stroke="none"/>
      <path fill="none" d="M348.4375 398.625 L370.4375 398.625" clip-path="url(#clipPath2)"/>
      <path d="M378.4375 398.625 L366.4375 393.625 L369.4375 398.625 L366.4375 403.625 Z" clip-path="url(#clipPath2)" stroke="none"/>
      <path fill="none" d="M378.4375 398.625 L356.4375 398.625" clip-path="url(#clipPath2)"/>
      <path d="M348.4375 398.625 L360.4375 403.625 L357.4375 398.625 L360.4375 393.625 Z" clip-path="url(#clipPath2)" stroke="none"/>
      <path fill="none" d="M449.9375 525.625 L449.9375 493.6459" clip-path="url(#clipPath2)" stroke="red"/>
      <path fill="red" d="M449.9375 485.6459 L444.9375 497.6459 L449.9375 494.6459 L454.9375 497.6459 Z" clip-path="url(#clipPath2)" stroke="none"/>
      <path fill="none" d="M348.4375 552.2839 L421.31 490.7846" clip-path="url(#clipPath2)" stroke="red"/>
      <path fill="red" d="M427.4238 485.625 L415.0284 489.5433 L420.5458 491.4296 L421.4779 497.1855 Z" clip-path="url(#clipPath2)" stroke="none"/>
      <path fill="none" d="M175.4375 582.4545 L397.5394 488.7352" clip-path="url(#clipPath2)" stroke="red"/>
      <path fill="red" d="M404.9101 485.625 L391.9102 485.6836 L396.6181 489.1239 L395.7979 494.8969 Z" clip-path="url(#clipPath2)" stroke="none"/>
      <path fill="none" d="M449.9375 485.625 L449.9375 517.625" clip-path="url(#clipPath2)" stroke="red"/>
      <path fill="red" d="M449.9375 525.625 L454.9375 513.625 L449.9375 516.625 L444.9375 513.625 Z" clip-path="url(#clipPath2)" stroke="none"/>
      <path fill="none" d="M427.4238 485.625 L354.5513 547.1243" clip-path="url(#clipPath2)" stroke="red"/>
      <path fill="red" d="M348.4375 552.2839 L360.8329 548.3657 L355.3155 546.4794 L354.3835 540.7234 Z" clip-path="url(#clipPath2)" stroke="none"/>
      <path fill="none" d="M404.9101 485.625 L182.8082 579.3443" clip-path="url(#clipPath2)" stroke="red"/>
      <path fill="red" d="M175.4375 582.4545 L188.4374 582.3959 L183.7295 578.9555 L184.5497 573.1826 Z" clip-path="url(#clipPath2)" stroke="none"/>
    </g>
  </g>
</svg>
